<?xml version="1.0" encoding="UTF-8" standalone="no"?>
<!DOCTYPE svg PUBLIC "-//W3C//DTD SVG 1.1//EN" "http://www.w3.org/Graphics/SVG/1.1/DTD/svg11.dtd">
<svg width="100%" height="100%" viewBox="0 0 32 32" version="1.1" xmlns="http://www.w3.org/2000/svg" xmlns:xlink="http://www.w3.org/1999/xlink" xml:space="preserve" xmlns:serif="http://www.serif.com/" style="fill-rule:evenodd;clip-rule:evenodd;stroke-linejoin:round;stroke-miterlimit:2;">
    <rect id="El" x="0" y="0" width="32" height="32" style="fill:none;"/>
    <g id="El1" serif:id="El">
        <g transform="matrix(1.51959,0,0,1.51959,-8.80757,-9.57077)">
            <path d="M7.856,25.434C8.031,25.305 8.227,25.139 8.409,24.94C8.697,24.624 8.96,24.216 8.984,23.71C9.011,23.143 8.698,22.698 8.351,22.077C7.665,20.848 6.743,19.145 6.542,15.789C6.434,13.972 6.867,12.697 7.495,11.795C9.002,9.628 11.538,9.233 11.538,9.233C11.977,9.226 13.295,9.168 13.377,10.214C13.411,10.652 12.31,11.473 11.871,11.48C11.871,11.48 9.902,11.791 8.852,13.3C8.383,13.973 8.326,15.213 8.407,16.569C8.617,20.09 9.442,20.71 10.051,21.868C10.399,22.529 10.605,23.113 10.573,23.784C10.564,23.972 10.539,24.153 10.5,24.328C11.172,24.189 11.817,24.207 12.331,24.435C13.14,24.795 15.436,24.891 17.837,24.395C19.359,24.081 20.862,23.465 21.621,22.38C23.03,20.369 23.064,19.364 23.002,18.237C22.978,17.799 23.624,17.048 24.062,17.024C24.5,17 25.193,17.666 25.159,18.874C25.119,20.258 24.93,20.947 23.203,23.413C22.233,24.799 20.432,25.631 18.488,26.033C15.688,26.612 12.628,26.308 11.685,25.889C11.261,25.7 10.679,25.886 10.125,26.094C9.6,26.29 9.1,26.55 8.73,26.763C8.321,27.056 8.003,27.207 8.003,27.207C7.629,27.387 7.179,27.247 6.971,26.887C6.763,26.528 6.867,26.068 7.21,25.833C7.21,25.833 7.461,25.663 7.856,25.434Z"/>
            <path d="M15.921,16.636C15.921,16.636 16.874,12.858 17.878,11.462C18.384,10.759 18.982,9.898 19.673,9.21C20.243,8.643 20.865,8.176 21.579,8.158C22.018,8.147 22.365,7.781 22.354,7.342C22.343,6.904 21.978,6.556 21.539,6.568C20.64,6.591 19.398,7.08 18.644,7.709C17.681,8.512 16.556,10.193 15.886,11.124C14.776,12.668 14.38,16.238 14.38,16.238C14.271,16.664 14.527,17.098 14.952,17.207C15.377,17.317 15.811,17.061 15.921,16.636Z"/>
            <path d="M18.797,18.503C18.797,18.503 20.579,14.452 21.595,12.749C21.93,12.187 22.199,11.572 22.525,11.203C22.76,10.936 22.956,10.811 23.27,10.738C23.561,10.671 23.723,10.619 24.141,10.746C24.561,10.874 25.005,10.637 25.133,10.217C25.261,9.797 25.024,9.352 24.604,9.224C23.86,8.997 23.253,8.978 22.734,9.099C21.608,9.359 20.845,10.339 19.979,11.79C18.916,13.572 17.303,17.955 17.303,17.955C17.152,18.368 17.364,18.825 17.776,18.976C18.188,19.127 18.646,18.915 18.797,18.503Z"/>
            <g transform="matrix(1.43692,0,0,1.43692,-6.6285,-9.5172)">
                <path d="M14.358,20.628C14.358,20.628 15.966,20.571 16.167,21.651C16.368,22.731 15.56,23.065 14.705,22.789C13.85,22.514 13.721,22.023 13.721,21.534C13.721,21.045 13.901,20.733 14.358,20.628Z"/>
            </g>
        </g>
    </g>
</svg>
