<?xml version="1.0" encoding="UTF-8" standalone="no"?>
<!DOCTYPE svg PUBLIC "-//W3C//DTD SVG 1.1//EN" "http://www.w3.org/Graphics/SVG/1.1/DTD/svg11.dtd">
<svg width="100%" height="100%" viewBox="0 0 32 32" version="1.1" xmlns="http://www.w3.org/2000/svg" xmlns:xlink="http://www.w3.org/1999/xlink" xml:space="preserve" xmlns:serif="http://www.serif.com/" style="fill-rule:evenodd;clip-rule:evenodd;stroke-linejoin:round;stroke-miterlimit:2;">
    <g transform="matrix(1,0,0,1,-45,0)">
        <g id="Eld" transform="matrix(1,0,0,1,44.9061,0)">
            <rect x="0" y="0" width="32" height="32" style="fill:none;"/>
            <g transform="matrix(1.52308,0,0,1.52308,-75.6193,-9.91671)">
                <path d="M63.445,10.338C63.4,10.078 63.367,9.814 63.337,9.56C63.147,7.912 63.869,6.608 65.076,6.765C66.74,6.98 67.875,10.297 66.816,11.773C66.672,12.041 66.098,12.288 65.777,12.355C65.777,12.355 64.24,12.668 62.847,12.391C62.221,12.266 61.632,12.027 61.161,11.642C60.85,12.022 60.494,12.506 60.177,13.06C60.163,13.084 60.149,13.109 60.136,13.133C61.246,13.219 62.428,13.649 63.645,14.595C64.108,14.954 64.191,15.623 63.831,16.086C63.472,16.549 62.803,16.632 62.34,16.272C61.294,15.459 60.285,15.214 59.366,15.293C59.337,15.521 59.327,15.753 59.34,15.987C59.367,16.486 59.478,16.974 59.667,17.434C59.694,17.485 59.718,17.539 59.737,17.595C60.314,18.863 61.291,20.207 63.095,20.654C64.036,20.887 65.528,20.594 66.608,20.524C67.193,20.486 67.123,21.143 67.16,21.729C67.198,22.314 66.437,22.861 65.852,22.898C64.753,22.969 63.261,22.244 62.297,22.009C60.576,21.589 60.268,21.205 59.181,20.481C59.053,20.863 58.902,21.26 58.726,21.649C58.584,21.961 58.425,22.266 58.249,22.555C58.992,22.616 59.715,22.702 60.248,22.751C60.941,22.816 61.354,23.074 61.612,23.348C62,23.762 62.122,24.301 62.018,24.873C61.881,25.622 61.256,26.437 61.256,26.437C60.89,26.895 60.221,26.971 59.762,26.605C59.304,26.239 59.424,25.862 59.789,25.404C59.789,25.404 60.489,24.814 60.233,24.743C59.737,24.606 57.741,24.582 56.809,24.583C56.676,24.583 56.523,24.595 56.386,24.611C55.91,24.665 55.981,25.201 55.645,25.369C55.121,25.632 54.643,25.501 54.38,24.977C54.065,24.35 54.133,23.852 54.326,23.471C54.452,23.222 54.659,22.994 54.956,22.821C55.052,22.731 55.166,22.658 55.295,22.607C55.99,22.335 56.436,21.553 56.79,20.771C57.273,19.707 57.529,18.57 57.629,18.055C57.393,17.426 57.255,16.768 57.218,16.102L57.217,16.069C57.183,16.091 57.15,16.112 57.116,16.134C56.38,16.618 56.066,16.892 55.529,17.228C55.322,17.538 54.694,17.832 54.369,18.181C53.991,18.587 53.555,19.118 53.121,18.774C52.687,18.429 52.805,17.957 53.114,17.497C53.114,17.497 53.725,16.726 53.908,16.413C54.051,16.169 54.238,15.735 54.212,15.619C54.143,15.319 53.988,15.017 53.784,14.777C53.542,14.493 52.599,14.477 52.76,13.913C52.92,13.349 53.485,13.216 54.049,13.376C54.049,13.376 55.2,13.533 55.758,14.488C55.821,14.444 55.885,14.401 55.949,14.358C56.466,14.019 57.031,13.718 57.637,13.497C57.827,12.969 58.068,12.467 58.333,12.004C59.292,10.33 60.545,9.181 60.545,9.181C60.814,8.934 61.19,8.842 61.543,8.938C61.895,9.033 62.174,9.303 62.28,9.652C62.415,10.092 62.849,10.224 63.263,10.307C63.323,10.319 63.384,10.329 63.445,10.338Z"/>
            </g>
        </g>
    </g>
</svg>
