<?xml version="1.0" encoding="UTF-8" standalone="no"?>
<!DOCTYPE svg PUBLIC "-//W3C//DTD SVG 1.1//EN" "http://www.w3.org/Graphics/SVG/1.1/DTD/svg11.dtd">
<svg width="100%" height="100%" viewBox="0 0 32 32" version="1.1" xmlns="http://www.w3.org/2000/svg" xmlns:xlink="http://www.w3.org/1999/xlink" xml:space="preserve" xmlns:serif="http://www.serif.com/" style="fill-rule:evenodd;clip-rule:evenodd;stroke-linejoin:round;stroke-miterlimit:2;">
    <g transform="matrix(1,0,0,1,-93,0)">
        <g id="Tir" transform="matrix(1,0,0,1,93.5614,0)">
            <rect x="0" y="0" width="32" height="32" style="fill:none;"/>
            <g transform="matrix(1.56432,0,0,1.56432,-155.323,-8.67455)">
                <path d="M106.29,15.935C107.015,14.623 108.213,12.4 109.046,10.581C109.534,9.516 110.25,6.46 110.25,6.46C110.25,6.46 111.311,9.17 111.38,9.552C111.38,9.552 112.414,13.645 113.864,17.269C114.213,18.14 114.582,18.893 114.977,19.401C115.151,19.626 115.31,19.803 115.493,19.862C115.599,19.896 115.677,19.847 115.74,19.766C115.871,19.599 115.966,19.366 116.05,19.095C116.684,17.038 116.635,12.396 117.048,12.363C117.46,12.331 118.178,17.284 117.483,19.537C117.046,20.956 116.189,21.659 115.036,21.291C114.619,21.157 114.189,20.833 113.792,20.321C113.329,19.725 112.881,18.849 112.472,17.827C111.636,15.74 110.942,13.021 110.491,11.026L110.41,11.206C109.118,14.027 106.964,17.802 106.964,17.802C106.911,17.896 105.227,19.867 103.231,19.736C103.214,20.427 103.249,21.739 103.672,22.86C104.007,23.751 104.617,24.394 105.776,24.407C107.154,24.421 107.956,23.719 108.438,22.822C108.595,22.532 108.719,22.235 108.817,21.951C108.391,21.661 106.549,20.511 105.607,21.641C105.597,21.653 105.592,21.659 105.592,21.659C105.597,21.653 105.602,21.647 105.607,21.641C105.883,21.305 109.896,16.387 109.941,14.785L113.321,22.179C113.321,22.179 110.836,20.983 110.395,21.909C110.258,22.412 110.055,22.983 109.759,23.533C109.041,24.868 108.199,25.614 106.149,25.592C104.26,25.572 102.815,24.841 102.268,23.389C101.718,21.931 101.714,20.2 101.742,19.469C101.732,19.467 103.053,10.434 103.053,10.434C103.053,10.434 104.853,14.18 106.29,15.935Z"/>
            </g>
        </g>
    </g>
</svg>
